<svg xmlns="http://www.w3.org/2000/svg" viewBox="0 0 32 32" width="32" height="32">
  <!-- Background circle with gradient -->
  <defs>
    <linearGradient id="adminGradient" x1="0%" y1="0%" x2="100%" y2="100%">
      <stop offset="0%" style="stop-color:#4f46e5;stop-opacity:1" />
      <stop offset="100%" style="stop-color:#7c3aed;stop-opacity:1" />
    </linearGradient>
  </defs>
  
  <!-- Background circle -->
  <circle cx="16" cy="16" r="15" fill="url(#adminGradient)" stroke="#ffffff" stroke-width="1"/>
  
  <!-- Admin shield icon -->
  <path d="M16 4L12 6v6c0 4 2.5 7.5 4 8c1.5-0.5 4-4 4-8V6L16 4z" fill="#ffffff" stroke="#e0e7ff" stroke-width="0.5"/>
  
  <!-- Admin gear/settings icon in center of shield -->
  <circle cx="16" cy="12" r="2" fill="#4f46e5"/>
  <path d="M15 9.5l0.5-1l1 0l0.5 1M17 14.5l-0.5 1l-1 0l-0.5-1M18.5 11l1-0.5v1l-1 0.5M13.5 13l-1 0.5v-1l1-0.5" stroke="#4f46e5" stroke-width="0.8" fill="none"/>
  
  <!-- Small admin crown at top -->
  <path d="M14 7l1-1l2 0l1 1l-0.5 0.5l-3 0z" fill="#fbbf24"/>
</svg>